<?xml version="1.0" encoding="UTF-8" standalone="no"?>
<!-- Created with Inkscape (http://www.inkscape.org/) -->

<svg
   width="20"
   height="20"
   viewBox="0 0 26.458333 26.458333"
   version="1.1"
   id="svg1"
   inkscape:version="1.3.2 (091e20e, 2023-11-25, custom)"
   sodipodi:docname="kirby.svg"
   xmlns:inkscape="http://www.inkscape.org/namespaces/inkscape"
   xmlns:sodipodi="http://sodipodi.sourceforge.net/DTD/sodipodi-0.dtd"
   xmlns="http://www.w3.org/2000/svg"
   xmlns:svg="http://www.w3.org/2000/svg">
  <sodipodi:namedview
     id="namedview1"
     pagecolor="#ffffff"
     bordercolor="#000000"
     borderopacity="0.25"
     inkscape:showpageshadow="2"
     inkscape:pageopacity="0.0"
     inkscape:pagecheckerboard="0"
     inkscape:deskcolor="#d1d1d1"
     inkscape:document-units="mm"
     showguides="true"
     inkscape:zoom="18.31"
     inkscape:cx="50.027307"
     inkscape:cy="54.396505"
     inkscape:window-width="3840"
     inkscape:window-height="2066"
     inkscape:window-x="-11"
     inkscape:window-y="-11"
     inkscape:window-maximized="1"
     inkscape:current-layer="layer1">
    <sodipodi:guide
       position="-127.26458,280.9875"
       orientation="0,-1"
       id="guide7"
       inkscape:locked="false" />
  </sodipodi:namedview>
  <defs
     id="defs1" />
  <g
     inkscape:label="Layer 1"
     inkscape:groupmode="layer"
     id="layer1"
     style="display:inline">
    <ellipse
       style="fill:#d35f5f;stroke-width:0.264583"
       id="path6"
       cx="6.6684871"
       cy="21.991297"
       rx="2.6641259"
       ry="3.603925" />
    <ellipse
       style="fill:#d35f5f;stroke-width:0.264583"
       id="path7"
       cx="18.15855"
       cy="22.244635"
       rx="2.5170269"
       ry="3.3342435" />
    <ellipse
       style="fill:#de8787;stroke-width:0.264583"
       id="path8"
       cx="13.344769"
       cy="12.658382"
       rx="11.162786"
       ry="10.794306" />
    <ellipse
       style="fill:#000000;stroke-width:0.264583"
       id="path9"
       cx="7.8970394"
       cy="9.3420601"
       rx="1.2354929"
       ry="2.1892066" />
    <path
       style="fill:#000000;stroke-width:0.264583"
       id="path10"
       sodipodi:type="arc"
       sodipodi:cx="14.399633"
       sodipodi:cy="9.6310644"
       sodipodi:rx="1.1487917"
       sodipodi:ry="2.1892066"
       sodipodi:start="0"
       sodipodi:end="6.2812525"
       sodipodi:arc-type="slice"
       d="m 15.548425,9.6310644 a 1.1487917,2.1892066 0 0 1 -1.148236,2.1892066 1.1487917,2.1892066 0 0 1 -1.149347,-2.1870909 1.1487917,2.1892066 0 0 1 1.147126,-2.19132 1.1487917,2.1892066 0 0 1 1.150455,2.184973 l -1.14879,0.00423 z" />
    <path
       style="fill:#ffffff;stroke-width:0.264583"
       id="path11"
       sodipodi:type="arc"
       sodipodi:cx="14.421309"
       sodipodi:cy="8.8001776"
       sodipodi:rx="0.65025938"
       sodipodi:ry="0.80921173"
       sodipodi:start="0"
       sodipodi:end="6.2812525"
       sodipodi:arc-type="slice"
       d="M 15.071569,8.8001776 A 0.65025938,0.80921173 0 0 1 14.421624,9.6093892 0.65025938,0.80921173 0 0 1 13.77105,8.8009596 0.65025938,0.80921173 0 0 1 14.420367,7.9909667 0.65025938,0.80921173 0 0 1 15.071568,8.7986135 l -0.650259,0.00156 z" />
    <path
       style="fill:#ffffff;stroke-width:0.264583"
       id="path12"
       sodipodi:type="arc"
       sodipodi:cx="7.8681388"
       sodipodi:cy="8.6412249"
       sodipodi:rx="0.65748447"
       sodipodi:ry="0.78031129"
       sodipodi:start="0"
       sodipodi:end="6.2812525"
       sodipodi:arc-type="slice"
       d="M 8.5256233,8.6412249 A 0.65748447,0.78031129 0 0 1 7.8684565,9.4215361 0.65748447,0.78031129 0 0 1 7.2106546,8.641979 0.65748447,0.78031129 0 0 1 7.8671857,7.8609144 0.65748447,0.78031129 0 0 1 8.525622,8.6397167 l -0.6574832,0.00151 z" />
    <path
       style="fill:#0000ff;stroke-width:0.264583"
       id="path14"
       sodipodi:type="arc"
       sodipodi:cx="7.9114895"
       sodipodi:cy="10.794306"
       sodipodi:rx="0.64303434"
       sodipodi:ry="0.70806026"
       sodipodi:start="0"
       sodipodi:end="3.5707974"
       sodipodi:arc-type="slice"
       d="m 8.5545238,10.794306 a 0.64303434,0.70806026 0 0 1 -0.4042029,0.657411 0.64303434,0.70806026 0 0 1 -0.7044555,-0.169069 0.64303434,0.70806026 0 0 1 -0.1190851,-0.783 l 0.5847092,0.294658 z" />
    <path
       style="fill:#0000ff;stroke-width:0.264583"
       id="path15"
       sodipodi:type="arc"
       sodipodi:cx="14.334607"
       sodipodi:cy="11.01106"
       sodipodi:rx="0.67915982"
       sodipodi:ry="0.50575733"
       sodipodi:start="0"
       sodipodi:end="3.5707974"
       sodipodi:arc-type="slice"
       d="m 15.013767,11.01106 a 0.67915982,0.50575733 0 0 1 -0.426911,0.469579 0.67915982,0.50575733 0 0 1 -0.744032,-0.120763 0.67915982,0.50575733 0 0 1 -0.125775,-0.559286 l 0.617558,0.21047 z" />
    <path
       style="fill:#de8787;stroke-width:0.264583"
       id="path18"
       sodipodi:type="arc"
       sodipodi:cx="2.6877389"
       sodipodi:cy="10.40415"
       sodipodi:rx="2.4998863"
       sodipodi:ry="3.8293054"
       sodipodi:start="3.8071858"
       sodipodi:end="3.5707974"
       sodipodi:open="true"
       sodipodi:arc-type="arc"
       d="M 0.72145175,8.0394552 A 2.4998863,3.8293054 0 0 1 4.1126539,7.2578001 2.4998863,3.8293054 0 0 1 4.8223447,12.397181 2.4998863,3.8293054 0 0 1 1.5149751,13.785927 2.4998863,3.8293054 0 0 1 0.41459986,8.8105929" />
    <path
       style="fill:#de8787;stroke-width:0.264583"
       id="path19"
       sodipodi:type="arc"
       sodipodi:cx="23.698343"
       sodipodi:cy="11.487916"
       sodipodi:rx="2.8033407"
       sodipodi:ry="3.9304569"
       sodipodi:start="3.8071858"
       sodipodi:end="3.5707974"
       sodipodi:open="true"
       sodipodi:arc-type="arc"
       d="m 21.493374,9.0607575 a 2.8033407,3.9304569 0 0 1 3.802851,-0.8023025 2.8033407,3.9304569 0 0 1 0.795838,5.275138 2.8033407,3.9304569 0 0 1 -3.708842,1.42543 2.8033407,3.9304569 0 0 1 -1.233947,-5.106758" />
    <path
       style="fill:#241c1c;stroke-width:0.264583"
       id="path2"
       sodipodi:type="arc"
       sodipodi:cx="13.200266"
       sodipodi:cy="17.578678"
       sodipodi:rx="4.2411361"
       sodipodi:ry="1.1343415"
       sodipodi:start="5.8603946"
       sodipodi:end="3.653625"
       sodipodi:arc-type="slice"
       d="m 17.067959,17.11325 a 4.2411361,1.1343415 0 0 1 -1.352692,1.378801 4.2411361,1.1343415 0 0 1 -5.324347,-0.06358 4.2411361,1.1343415 0 0 1 -0.8878669,-1.405558 l 3.6972129,0.55577 z" />
    <path
       style="fill:#241c1c;stroke-width:0.264583"
       id="path3"
       sodipodi:type="arc"
       sodipodi:cx="13.258067"
       sodipodi:cy="17.304125"
       sodipodi:rx="3.7498293"
       sodipodi:ry="0.3106795"
       sodipodi:start="5.8603946"
       sodipodi:end="3.653625"
       sodipodi:arc-type="slice"
       d="m 16.677714,17.176651 a 3.7498293,0.3106795 0 0 1 -1.195991,0.377633 3.7498293,0.3106795 0 0 1 -4.707558,-0.01741 3.7498293,0.3106795 0 0 1 -0.7850137,-0.384962 l 3.2689157,0.152218 z" />
  </g>
</svg>
