<?xml version="1.0" encoding="UTF-8" standalone="no"?>
<!-- Created with Inkscape (http://www.inkscape.org/) -->

<svg
   width="20"
   height="20"
   viewBox="0 0 5.2916665 5.2916666"
   version="1.1"
   id="svg1"
   inkscape:version="1.3.2 (091e20ef0f, 2023-11-25)"
   sodipodi:docname="derek.svg"
   xmlns:inkscape="http://www.inkscape.org/namespaces/inkscape"
   xmlns:sodipodi="http://sodipodi.sourceforge.net/DTD/sodipodi-0.dtd"
   xmlns="http://www.w3.org/2000/svg"
   xmlns:svg="http://www.w3.org/2000/svg">
  <sodipodi:namedview
     id="namedview1"
     pagecolor="#ffffff"
     bordercolor="#000000"
     borderopacity="0.25"
     inkscape:showpageshadow="2"
     inkscape:pageopacity="0.0"
     inkscape:pagecheckerboard="0"
     inkscape:deskcolor="#d1d1d1"
     inkscape:document-units="mm"
     inkscape:zoom="52.196857"
     inkscape:cx="8.6595252"
     inkscape:cy="12.730651"
     inkscape:window-width="3840"
     inkscape:window-height="2066"
     inkscape:window-x="-11"
     inkscape:window-y="-11"
     inkscape:window-maximized="1"
     inkscape:current-layer="layer1" />
  <defs
     id="defs1" />
  <g
     inkscape:label="Layer 1"
     inkscape:groupmode="layer"
     id="layer1">
    <rect
       style="fill:#800080;stroke-width:0.264583"
       id="rect11"
       width="5.3122611"
       height="5.3071923"
       x="-0.010137904"
       y="0" />
    <path
       style="fill:#0000ff;stroke-width:0.320887"
       d="m 1.1861346,3.3556458 c -0.026134,-0.019323 -0.028304,-0.067518 -0.050689,-0.089471 -0.00314,-0.00307 -0.00747,-0.00354 -0.010138,-0.00746 -0.0012,-0.00175 4.101e-4,-0.00505 0,-0.00746 -0.00317,-0.01868 -0.018235,-0.047704 -0.030414,-0.059648 -0.010829,-0.01062 -0.019744,-0.00393 -0.030414,-0.014913 -0.0644902,-0.066397 -0.019919,-0.036537 -0.11151673,-0.089468 -0.0600163,-0.034681 -0.0767771,-0.039193 -0.13686171,-0.067103 -0.0101902,-0.00474 -0.0200464,-0.011105 -0.0304137,-0.014913 -0.003278,-0.00121 -0.007115,0.00222 -0.010138,0 -0.001511,-0.00113 0,-0.00497 0,-0.00746 0,-0.028974 -0.003218,-0.061067 0,-0.08947 6.2177e-4,-0.00549 0.004249,-0.00949 0.005069,-0.014913 0.005857,-0.03877 0.008231,-0.06895 0.0202758,-0.1043817 -0.00281,-0.018466 0.0114287,-0.018708 0.0152069,-0.029822 7.5671e-4,-0.00222 -0.001511,-0.00634 0,-0.00746 0.005018,-0.00369 0.0209145,-9.34e-4 0.0253447,-0.00746 0.002672,-0.00393 0.002045,-0.011576 0.005069,-0.014913 0.0178181,-0.019657 0.0503793,-0.012282 0.0709653,-0.022369 0.006801,-0.00335 0.008795,-0.017652 0.0152069,-0.022369 0.003023,-0.00222 0.006932,0.00156 0.010138,0 0.007169,-0.0035 0.0132599,-0.010782 0.0202758,-0.014913 0.001569,-9.34e-4 0.003874,0.00175 0.005069,0 0.001196,-0.00175 -0.001405,-0.00607 0,-0.00746 0.0112025,-0.010988 0.0281217,-0.00883 0.0405516,-0.014913 0.014025,-0.00688 0.043848,-0.017521 0.055759,0 0.0029,0.00427 0.00351,0.022946 0.00507,0.029822 0.00458,0.020191 0.00899,0.00987 0.010138,0.014913 0.00908,0.04008 -0.011177,0.00491 0.00507,0.044736 0.015207,0.03728 0.00507,0 0.015207,0.022366 0.00267,0.0059 0.013957,0.035443 0.015207,0.037278 0.00392,0.00577 0.059409,4.28e-4 0.060827,0 0.00256,-7.395e-4 0.00762,-0.054714 0.010138,-0.059648 0.010822,-0.021225 0.030287,-0.052067 0.045621,-0.067103 0.041029,-0.040233 0.088661,-0.066317 0.1317927,-0.1043817 0.00507,-0.00497 0.010138,-0.00994 0.015207,-0.014913 0,-0.00249 -0.0012,-0.00569 0,-0.00746 0.0012,-0.00175 0.00356,0.00113 0.00507,0 0.015559,-0.011443 0.031318,-0.022716 0.045621,-0.03728 0.00786,-0.008 0.012323,-0.022024 0.020276,-0.029822 0.027267,-0.026736 0.060554,-0.029756 0.091241,-0.037278 0.016002,-0.00393 0.022666,-0.026067 0.040552,-0.029822 0.050627,-0.010635 0.098133,0.019981 0.1419306,0.052192 0.022237,0.016353 0.052044,0.024448 0.076034,0.037278 0.013671,0.00731 0.04383,0.033083 0.060827,0.022369 0.00906,-0.00571 0.016149,-0.017167 0.025345,-0.022369 0.013005,-0.00735 0.027505,-0.00772 0.040552,-0.014913 0.01415,-0.00781 0.02652,-0.021568 0.040552,-0.029822 0.077241,-0.045445 0.040243,-0.00969 0.1013791,-0.059648 0.01996,-0.016311 0.087496,-0.1063292 0.1064479,-0.1342055 0.044695,-0.065742 -0.044381,0.038143 0.030414,-0.059648 0.010181,-0.013311 0.02585,-0.015655 0.035483,-0.029824 0.0012,-0.00177 -0.00151,-0.00634 0,-0.00746 0.010686,-0.00785 0.024021,-0.0025 0.035483,-0.00746 0.020504,-0.00887 0.039964,-0.023003 0.060827,-0.029824 0.039498,-0.012914 0.2134402,-0.025732 0.2483786,-0.014912 0.048957,0.01516 0.115549,0.050688 0.1622064,0.074559 0.026268,0.013444 0.066654,0.031526 0.091241,0.052192 3.44e-4,2.905e-4 0.00465,0.02196 0.00507,0.022368 0.022823,0.022381 0.055779,0.02238 0.081103,0.03728 0.010525,0.00619 0.019995,0.0158 0.030414,0.022368 0.021632,0.013635 0.045175,0.020868 0.065897,0.03728 0.02019,0.015992 0.049719,0.040897 0.070965,0.059648 0.00597,0.00527 0.00933,0.016862 0.015208,0.022366 -0.025056,0.2328578 0.037604,0.028713 0.055758,0.044736 0.00724,0.0064 0.012719,0.016812 0.020275,0.022366 0.016923,0.012444 0.038391,0.017049 0.055759,0.029822 0.011827,0.00994 0.023654,0.019883 0.035483,0.029822 0.00507,0.00746 0.00901,0.017054 0.015206,0.022369 0.02223,0.019073 0.046098,0.034982 0.070965,0.044736 0.01665,0.00653 0.034121,0.00796 0.050689,0.014913 0.017071,0.00718 0.070624,0.049873 0.09631,0.037278 0.070408,-0.03452 0.1280679,-0.1112787 0.1926201,-0.164029 0.00467,-0.00381 0.010761,-0.00312 0.015208,-0.00746 0.00843,-0.00827 -0.00486,-0.031643 0,-0.044736 0.015571,-0.041988 0.034387,-0.06096 0.050689,-0.096926 0.00296,-0.00655 0.00212,-0.015828 0.00507,-0.022368 9.26e-4,-0.00206 0.00431,0.00222 0.00507,0 0.00824,-0.02424 -0.00663,-0.027272 0.020275,-0.059647 0.017788,-0.021406 0.035583,-0.04346 0.055759,-0.059648 0.016584,-0.013311 0.035938,-0.019922 0.05069,-0.03728 0.00746,-0.00878 0.011726,-0.023536 0.020275,-0.029824 0.016277,-0.011973 0.034199,-0.018504 0.05069,-0.029824 0.02404,-0.016502 0.050299,-0.042728 0.076034,-0.052192 0.1146606,-0.042163 0.2318938,-0.044736 0.3497575,-0.044736 0.039972,0 0.2084022,-0.016833 0.217965,-0.00746 0.013338,0.013076 0.010917,0.044386 0.015206,0.067103 0.00516,0.027303 0.012348,0.053992 0.015208,0.082014 0.0037,0.036282 4.761e-4,0.2282641 -0.00507,0.2609553 -0.0035,0.020598 -0.011134,0.039276 -0.015208,0.059648 -0.00439,0.021984 -0.00521,0.045365 -0.010139,0.067103 -0.011417,0.050375 -0.019235,0.045575 -0.040552,0.08947 -9.79e-4,0.00203 0.00119,0.00569 0,0.00746 -0.00119,0.00175 -0.00339,-3.421e-4 -0.00507,0 -0.05917,0.012091 -0.1179835,0.028359 -0.1774131,0.037278 -0.052109,0.00783 -0.1047584,0 -0.1571377,0 -0.011986,0 -0.057142,-0.00543 -0.060827,0 -0.00933,0.013723 -0.015674,0.031527 -0.025345,0.044736 -0.014118,0.019283 -0.030821,0.034048 -0.045621,0.052192 -0.016693,0.00149 -0.012626,0.026027 -0.020275,0.037278 -0.00617,0.00909 -0.011324,0.0035 -0.015206,0.014913 -7.673e-4,0.00222 0.00119,0.00569 0,0.00746 -0.00119,0.00175 -0.00338,0 -0.00507,0 -0.00507,0.00994 -0.011202,0.018883 -0.015206,0.029822 -0.019222,0.052505 -0.024082,0.093232 -0.030414,0.1491175 -0.00201,0.017777 -0.00812,0.034414 -0.010139,0.05219 -0.00274,0.024164 0.00235,0.050307 0,0.074559 -7.673e-4,0.00778 -0.00431,0.014591 -0.00507,0.022366 -9.525e-4,0.00984 0.00132,0.020078 0,0.029822 -0.0023,0.016971 -0.00787,-0.00156 -0.00507,0.014913 0.00659,0.038793 0.010139,0.071037 0.010139,0.1118377"
       id="path4" />
    <path
       style="fill:#000000;stroke-width:0.297305"
       d="M 1.1506519,3.2958758 C 1.5795872,4.159707 2.718119,4.1413275 2.718119,4.1413275 c 0,0 -0.6831191,-0.00613 0.015887,0 0.6990054,0.00613 1.2603281,-0.8515781 1.2603281,-0.8515781 z"
       id="path3" />
    <ellipse
       style="fill:#f9f9f9;stroke-width:0.264583"
       id="path5"
       cx="2.0149081"
       cy="2.9121125"
       rx="0.1140514"
       ry="0.20529252" />
    <ellipse
       style="fill:#f9f9f9;stroke-width:0.264583"
       id="path5-6"
       cx="2.6757879"
       cy="2.9119532"
       rx="0.1140514"
       ry="0.20529252" />
    <path
       style="fill:#800080;stroke-width:0.264583"
       d="m 4.6026077,2.0579943 c -0.00676,0 -0.013584,-9.552e-4 -0.020275,0 -0.012176,0.00174 -0.02335,0.00812 -0.035483,0.010138 -0.021532,0.00359 -0.050207,-0.00692 -0.070965,0 -0.00454,0.00151 -0.0056,0.00863 -0.010139,0.010138 -0.00321,0.00107 -0.00676,0 -0.010139,0 -0.013518,0.00507 -0.027148,0.00985 -0.040552,0.015207 -0.00915,0.00366 -0.016198,0.011548 -0.025345,0.015207 -0.022812,0.00913 -0.04937,0.012387 -0.070965,0.025345 -0.00146,8.705e-4 0.00151,0.00431 0,0.00507 -0.00605,0.00302 -0.014653,-0.00375 -0.020275,0 -0.067938,-0.021443 -0.012062,0.018304 -0.020275,0.025345 -0.01283,0.010996 -0.032995,0.015301 -0.040552,0.030414 -0.020608,0.041216 -0.05008,0.079885 -0.070965,0.1216549 -0.00534,0.010686 -0.00249,0.02382 -0.00507,0.035483 -0.00713,0.032097 -0.023786,0.067061 -0.015206,0.101379 0.00361,0.014429 0.020899,0.027214 0.025344,0.040552 0.0099,0.029702 -0.014092,-0.00902 0.010139,0.015207 0.00119,0.0012 -0.00119,0.00387 0,0.00507 0.00345,0.00345 0.025932,-0.00112 0.030414,0 0.042178,0.010544 0.073686,0.00371 0.1115169,-0.015207 0.015999,-0.008 0.027414,-0.00495 0.040552,-0.020276 0.00138,-0.00162 0.034139,-0.055087 0.035483,-0.055758 0.012697,-0.00635 0.1405486,0.030009 0.1520685,0.030414 0.1387224,0.00487 0.2505718,-0.00455 0.3801713,-0.040552 0.011853,-0.00329 0.023548,-0.00715 0.035483,-0.010138 0.00164,-4.101e-4 0.00387,0.0012 0.00507,0 0.00803,-0.00803 -0.04502,-0.013506 -0.050689,-0.015207 -0.039419,-0.011826 -0.071883,-0.034155 -0.1064482,-0.055759 -0.010911,-0.00682 -0.026384,-0.00611 -0.035482,-0.015207 -0.00493,-0.00493 -0.00148,-0.014302 -0.00507,-0.020276 -0.00435,-0.00724 -0.015208,-0.00845 -0.020275,-0.015207 -0.00758,-0.010102 -0.00896,-0.022871 -0.020275,-0.030414 -0.00861,-0.00574 -0.04832,-0.022975 -0.05069,-0.025345 -0.00267,-0.00267 -0.00297,-0.00699 -0.00507,-0.010138 -0.00465,-0.00697 -0.00782,-0.00521 -0.015208,-0.010138 -0.00319,-0.00213 -0.032897,-0.042932 -0.035482,-0.05069 -0.00491,-0.014736 -0.00552,-0.026714 -0.010139,-0.040552 -0.00151,-0.00456 0.00151,-0.010645 0,-0.015207 -7.673e-4,-0.00227 -0.004,-0.00293 -0.00507,-0.00507 -0.00546,-0.01091 -0.00719,-0.020718 -0.010139,-0.035482 z"
       id="path11" />
  </g>
</svg>
