<?xml version="1.0" encoding="UTF-8" standalone="no"?>
<!-- Created with Inkscape (http://www.inkscape.org/) -->

<svg
   width="20"
   height="20"
   viewBox="0 0 20 20"
   version="1.1"
   id="svg1"
   inkscape:version="1.3.2 (091e20e, 2023-11-25, custom)"
   sodipodi:docname="adrian.svg"
   xmlns:inkscape="http://www.inkscape.org/namespaces/inkscape"
   xmlns:sodipodi="http://sodipodi.sourceforge.net/DTD/sodipodi-0.dtd"
   xmlns="http://www.w3.org/2000/svg"
   xmlns:svg="http://www.w3.org/2000/svg">
  <sodipodi:namedview
     id="namedview1"
     pagecolor="#ffffff"
     bordercolor="#000000"
     borderopacity="0.25"
     inkscape:showpageshadow="2"
     inkscape:pageopacity="0.0"
     inkscape:pagecheckerboard="0"
     inkscape:deskcolor="#d1d1d1"
     inkscape:document-units="mm"
     inkscape:zoom="6.5246072"
     inkscape:cx="38.163217"
     inkscape:cy="70.425696"
     inkscape:window-width="3840"
     inkscape:window-height="2066"
     inkscape:window-x="-11"
     inkscape:window-y="-11"
     inkscape:window-maximized="1"
     inkscape:current-layer="layer1" />
  <defs
     id="defs1" />
  <g
     inkscape:label="Layer 1"
     inkscape:groupmode="layer"
     id="layer1">
    <path
       style="fill:#784421;stroke-width:0.264999;paint-order:markers stroke fill"
       d="m 2.7980612,8.1914253 c 19.6675308,0.081103 0,0 0,0 z"
       id="path1" />
    <path
       style="fill:#784421;stroke-width:0.264999;paint-order:markers stroke fill"
       d="M 11.395002,8.110322 22.627798,8.2319769 Z"
       id="path2" />
    <path
       style="fill:#784421;stroke-width:0.264999;paint-order:markers stroke fill"
       d="m 17.234434,11.030038 c 0.121655,0 0,0 0,0 z"
       id="path4" />
    <path
       style="fill:#1a1a1a;stroke-width:0.264999;paint-order:markers stroke fill"
       d="m 16.828918,4.906745 c 0.615733,-0.099015 0.288805,-0.015232 0.567722,0.040552 0.03976,0.00795 0.08438,-0.015976 0.121655,0 0.06212,0.026623 0.101756,0.091429 0.162207,0.1216549 0.02418,0.012089 0.05564,-0.00909 0.0811,0 0.287947,0.1028385 0.818657,0.2914864 1.054342,0.5271709 0.238952,0.2389526 0.391936,0.5514271 0.608274,0.811032 0.0979,0.117484 0.254017,0.188649 0.324413,0.3244131 0.123976,0.2390973 0.184884,0.5075655 0.243309,0.7704806 0.02957,0.1330492 0.02403,1.5834958 0,1.7437193 -0.01003,0.066838 -0.08688,0.1042519 -0.121654,0.1622062 -0.08714,0.1452338 -0.154544,0.3018224 -0.24331,0.4460679 -0.329536,0.5354951 -0.836959,0.5271711 -1.378755,0.5271711 -0.435862,0 -1.353057,0.08893 -1.743719,-0.162206 -0.120866,-0.0777 -0.211424,-0.195087 -0.32441,-0.2838622 C 16.022969,9.8116907 15.926925,9.8003465 15.815127,9.6512834 15.691329,9.4862183 15.607607,9.294138 15.490714,9.1241125 14.961288,8.3540371 15.557132,9.3409872 14.963544,8.2725285 14.77465,7.9325191 14.36165,7.4250549 14.314718,7.0965318 c -0.0152,-0.1063685 -0.03113,-0.4337793 0,-0.5271709 0.0052,-0.015499 0.278022,-0.1187354 0.283861,-0.1216548 0.261199,-0.1305994 -0.03975,-0.046688 0.324413,-0.2027579 0.02485,-0.010649 0.05692,0.012091 0.0811,0 0.08718,-0.043592 0.168428,-0.099805 0.24331,-0.1622065 0.01038,-0.00865 -0.01209,-0.034507 0,-0.040552 0.137849,-0.068924 0.301761,-0.06754 0.446068,-0.1216549 0.0179,-0.00671 0.0228,-0.033452 0.04055,-0.040552 0.155112,-0.062045 0.163385,-0.00119 0.283862,-0.1216549 0.0096,-0.00956 -0.0096,-0.030993 0,-0.040551 0.02606,-0.026061 0.160958,-0.051247 0.202758,-0.081103 0.136156,-0.033209 0.184163,-0.1685364 0.283861,-0.2433098 0.127998,-0.095998 0.05063,0.030475 0.202758,-0.1216548 0.270344,-0.2703442 -0.202758,0.094621 0.121655,-0.1216549 0.01591,-0.010605 0.02345,-0.032002 0.04055,-0.040551 0.01209,-0.00605 0.0432,0.013256 0.04055,0 -0.01428,-0.071379 -0.05407,-0.1351722 -0.0811,-0.2027581 z"
       id="path22" />
    <path
       style="fill:#1a1a1a;stroke-width:0.264999;paint-order:markers stroke fill"
       d="m 14.436373,7.3398416 c -0.447976,-0.049775 -0.295399,-0.084432 -0.729929,0.081103 -0.562226,0.214181 -1.11618,0.4794792 -1.662616,0.7299288 -0.109907,0.050374 -0.211209,0.1197551 -0.324413,0.1622065 -0.273217,0.1024564 -0.573332,0.1148889 -0.851584,0.2027581 -0.08647,0.027305 -0.156643,0.094988 -0.243309,0.1216549 -0.09136,0.028109 -0.190728,0.019058 -0.283862,0.040552 -0.0833,0.019225 -0.160371,0.060369 -0.243309,0.081103 C 9.8465653,8.8218439 9.5423943,8.8231799 9.2863193,8.8402509 8.9807323,8.860624 8.6531986,8.8208889 8.3536318,8.8808027 7.8404079,8.9834476 7.3166821,9.156716 6.8126707,9.286319 5.665104,9.5814075 6.360093,9.3701715 4.6634353,9.8945932 3.5790615,10.229763 4.2985359,10.069592 3.2035773,10.300109 c -0.2703441,0.05407 -0.5406881,0.108138 -0.8110322,0.162207 -0.027034,0.01352 -0.052041,0.03225 -0.081103,0.04055 -0.079058,0.02259 -0.1697681,0.0038 -0.2433096,0.04055 -0.036981,0.01849 -0.2838613,0.153504 -0.2838613,0.202758 0,0.04275 0.016841,0.08609 0.040552,0.121655 0.0075,0.01125 0.027069,-9.53e-4 0.040552,0 0.6200428,0.04429 1.245614,0.133602 1.8653741,0.162206 1.8568354,0.0857 3.74052,0.04055 5.596122,0.04055 1.8653737,0 3.7307477,0 5.5961217,0 0.432551,0 0.865101,0 1.297652,0 0.03604,0 0.522932,0.0042 0.52717,0 0.107312,-0.107308 -0.163142,-0.626922 -0.202758,-0.729924 C 16.310826,9.7316617 16.175303,9.0787722 15.693473,8.5969416 15.65804,8.5615086 15.522387,8.5316747 15.490714,8.5158383 15.402528,8.4717447 14.659089,8.1096873 14.639131,8.0697707 14.566238,7.923985 14.471438,7.7990315 14.436373,7.6237028 c -0.0027,-0.013256 0,-0.027034 0,-0.040552 0,-0.081103 0.01967,-0.164628 0,-0.2433095 -0.0213,-0.085216 -0.277684,-0.4628065 0,3e-7 z"
       id="path23" />
    <path
       style="fill:#1a1a1a;stroke-width:0.264999;paint-order:markers stroke fill"
       d="m 14.436373,7.5831511 c 0.229792,0.027035 0.461868,0.038972 0.689377,0.081103 0.138765,0.025696 0.270633,0.080152 0.405516,0.1216549 0.02288,0.00704 0.173546,0.051891 0.202758,0.081103 0.0082,0.00822 0.0082,0.1945381 0,0.2027582 -0.04779,0.04779 -0.108137,0.081103 -0.162206,0.1216546 -0.102104,0.076578 -0.159471,0.071899 -0.283861,0.1216549 -0.01775,0.0071 -0.02703,0.027034 -0.04055,0.040552 -0.02703,0.013518 -0.05243,0.030994 -0.0811,0.040552 -0.102375,0.034125 -0.544117,0.026178 -0.648826,0 -0.232081,-0.05802 -0.635912,-0.282956 -0.446068,-0.5677225 0.05446,-0.081695 0.109769,0.00315 0.162207,-0.040552 0.07343,-0.061189 0.135172,-0.135172 0.202758,-0.2027582 z"
       id="path24" />
    <path
       style="fill:#1a1a1a;stroke-width:0.264999;paint-order:markers stroke fill"
       d="M 15.328508,7.5425995 C 15.235968,7.4809045 15.047687,7.340855 14.922992,7.29929 14.830912,7.268597 14.649906,7.264126 14.558028,7.218187 c -0.04642,-0.023212 -0.02404,-0.059572 -0.0811,-0.040552 -0.174075,0.058025 -0.303897,0.7150214 -0.162206,0.8921356 0.03045,0.038057 0.08266,0.051861 0.121655,0.081103 0.20221,0.1516578 0.395327,0.324413 0.648825,0.324413 0.07732,0 0.257423,0.074047 0.324413,0.040552 0.173578,-0.086789 0.159373,-0.4489018 0.04055,-0.5677225 -0.0042,-0.00417 -0.209921,-0.1597829 -0.202758,-0.2027582 0.01197,-0.071802 0.05407,-0.1351719 0.0811,-0.2027581 z"
       id="path25" />
    <path
       style="fill:#1a1a1a;stroke-width:0.264999;paint-order:markers stroke fill"
       d="m 1.987029,10.908384 c -0.029074,0.115795 0.1501717,0.175548 0.1622064,0.283861 0.00731,0.06574 0.029595,0.388007 0.040552,0.486619 0.011942,0.107476 -0.026227,0.219504 0,0.324413 0.00328,0.01311 0.030993,-0.0096 0.040552,0 0.038232,0.03823 0,0.108138 0,0.162207 0,0.211746 0.039355,0.479483 0,0.689377 -0.043505,0.232024 -0.087555,0.465424 -0.1622064,0.689377 -0.032554,0.09766 -0.095456,0.184307 -0.1216548,0.283861 -0.04185,0.15903 -0.047226,0.325703 -0.081103,0.48662 -0.01894,0.08997 -0.074196,0.391701 -0.1216549,0.486619 -0.051519,0.103037 -0.025429,0.365642 -0.040552,0.486619 -0.013826,0.110605 -0.072554,0.213276 -0.081103,0.324413 -0.00843,0.109606 -0.043184,0.822095 0,0.973239 0.07215,0.252525 0.2175336,0.992939 0.3244129,1.135445 0.090836,0.121114 0.2335773,0.203299 0.3244129,0.324413 0.029242,0.03899 0.043046,0.09121 0.081103,0.121655 0.066719,0.05337 0.1675229,0.04055 0.2433097,0.04055 0.4649594,0 0.9078706,-0.42923 1.1759966,-0.770481 0.034433,-0.04382 0.019116,-0.110761 0.040552,-0.162207 0.232551,-0.558122 0.2197507,-0.432417 0.2838613,-1.094893 0.048478,-0.500935 0.1326422,-0.997817 0.1622064,-1.50041 0.017199,-0.292371 0,-0.599484 0,-0.892135 0,-0.216275 -0.027973,-0.434367 0,-0.648826 0.013315,-0.102079 0.096687,-0.183991 0.1216549,-0.283861 0.04833,-0.193319 0.01162,-1.401877 -0.081103,-1.540961 -0.070539,-0.105809 -0.3051701,-0.112034 -0.4055161,-0.162207 -0.01209,-0.006 0.010814,-0.03244 0,-0.04055 -0.077564,-0.05817 -0.2633246,-0.141878 -0.3649644,-0.162206 -0.1126434,-0.02253 -0.067586,0.03379 -0.2027581,0 -0.018545,-0.0046 -0.023453,-0.032 -0.040552,-0.04055 -0.1546899,-0.07735 -0.7799295,-0.267195 -0.9732386,-0.202759 -0.090225,0.03008 -0.268381,0.169139 -0.3244129,0.202759 z"
       id="path26" />
    <path
       style="fill:#1a1a1a;stroke-width:0.264999;paint-order:markers stroke fill"
       d="m 4.5012289,10.867832 c -0.00943,0.162883 0.054707,0.722851 0.040552,0.729929 -0.02418,0.01209 -0.055456,-0.0085 -0.081103,0 -0.018135,0.006 -0.022416,0.03451 -0.040552,0.04055 -0.2729607,0.09099 -0.7090203,-0.141298 -0.8921355,-0.324413 -0.01805,-0.01805 -0.00606,-0.343755 0,-0.364965 0.024911,-0.08719 0.063605,-0.17365 0.1216549,-0.24331 0.048952,-0.05874 0.1132548,-0.103464 0.1622064,-0.162206 0.064013,-0.07682 0.07046,-0.165754 0.2027581,-0.121655 0.087484,0.02916 0.3868089,0.37121 0.4866193,0.446068 z"
       id="path27" />
    <path
       style="fill:#1a1a1a;stroke-width:0.264999;paint-order:markers stroke fill"
       d="m 16.707263,11.07059 c 0.164199,1.196691 0.121655,2.4044 0.121655,3.609093 0,0.288985 -0.0019,-0.0733 0.04055,0.648826 0.0197,0.33482 0,0.67804 0,1.01379 0,0.513654 0,1.027308 0,1.540962 0,0.06149 0.03791,0.367606 0,0.405516 -0.379017,0.379017 -0.914318,0.04346 -1.2571,-0.162207 -0.169716,-0.10183 -0.157764,-0.03167 -0.243309,-0.202758 -0.09023,-0.180457 -0.139177,-0.376977 -0.202758,-0.567722 -0.04905,-0.147152 -0.131316,-0.291614 -0.162207,-0.446068 -0.01591,-0.07953 0.0073,-0.16254 0,-0.24331 -0.06245,-0.68693 -0.03939,-1.379855 -0.0811,-2.068132 -0.01888,-0.311497 -0.05104,-0.622069 -0.0811,-0.932687 -0.07666,-0.792158 -0.04055,-1.595848 -0.04055,-2.392545 0,-0.282964 -6.61e-4,-0.572415 -0.04055,-0.851584 -0.006,-0.04232 -0.05407,-0.0811 -0.04055,-0.121655 0.0098,-0.02952 0.420247,0.189848 0.446068,0.202758 0.09747,0.04874 0.183693,0.119278 0.283861,0.162207 0.02485,0.01065 0.05692,-0.01209 0.0811,0 0.01209,0.006 -0.0096,0.03099 0,0.04055 0.04275,0.04275 0.11037,0.05 0.162207,0.0811 0.09971,0.05983 0.179858,0.150756 0.283861,0.202758 0.04985,0.02492 0.11046,0.01985 0.162206,0.04055 0.07162,0.02865 0.132763,0.127209 0.202758,0.162207 0.03823,0.01912 0.0811,0.02703 0.121655,0.04055 0.04055,0.01352 0.08609,0.06426 0.121655,0.04055 0.06558,-0.04372 0.0811,-0.135172 0.121655,-0.202758 z"
       id="path28" />
    <path
       style="fill:#1a1a1a;stroke-width:0.264999;paint-order:markers stroke fill"
       d="m 11.922173,10.786729 c -0.446317,1.773164 -0.523701,3.597544 -0.811032,5.393364 -0.02178,0.136118 -0.064,0.268732 -0.0811,0.405516 -0.01006,0.08048 0.009,0.162703 0,0.24331 -0.0047,0.04248 -0.03217,0.07974 -0.04055,0.121655 -0.03466,0.173309 0,0.387183 0,0.567722 0,0.0031 -0.0094,0.198074 0,0.202759 0.126874,0.06344 0.575974,-0.01134 0.689377,0 0.150377,0.01504 0.295354,0.06994 0.446068,0.0811 0.254921,0.01888 0.82813,0.03415 1.135445,0 0.50618,-0.05624 0.443114,-0.254329 0.486619,-0.689378 0.03243,-0.324312 0.124133,-0.649614 0.162206,-0.973238 0.0079,-0.06712 -0.01416,-0.136673 0,-0.202758 0.02687,-0.125389 0.09282,-0.240013 0.121655,-0.364965 0.03963,-0.171729 0.01375,-0.352977 0.04055,-0.527171 0.08257,-0.536733 0.175559,-1.07808 0.202758,-1.622064 0.01878,-0.375636 0,-0.759493 0,-1.135445 0,-0.115428 0.04306,-1.292638 0,-1.378755 -0.02569,-0.05137 -0.113243,-0.105333 -0.162207,-0.121655 -0.08724,-0.02908 -1.047399,-0.02201 -1.135445,0 -0.11251,0.02813 0.0036,0.03698 -0.04055,0.0811 -0.02024,0.02024 -0.171006,0 -0.202759,0 -0.276001,0 -0.553392,0.03781 -0.811031,-0.0811 -0.09895,-0.04567 -0.188597,-0.109281 -0.283862,-0.162206 -0.02642,-0.01468 -0.05595,-0.02379 -0.0811,-0.04055 -0.01591,-0.0106 -0.02703,-0.05407 -0.04055,-0.04055 -0.04055,0.04055 0.0811,0.0811 0.121655,0.121655 0.04055,0.04055 0.08725,0.07578 0.121655,0.121655 0.01622,0.02163 -0.02623,0.08766 0,0.0811 0.05865,-0.01466 0.108137,-0.05407 0.162206,-0.0811 z"
       id="path29" />
    <path
       style="fill:#1a1a1a;stroke-width:0.264999;paint-order:markers stroke fill"
       d="m 6.366603,11.232796 c -0.1081375,0.851584 -0.1983075,1.705643 -0.324413,2.554752 -0.076727,0.51663 -0.174997,1.030137 -0.2838611,1.540961 -0.06697,0.314243 -0.1679197,0.620357 -0.2433098,0.932687 -0.026154,0.108354 0.018595,0.274564 -0.081103,0.324413 -0.065107,0.03255 -0.1395566,-0.04499 -0.202758,-0.0811 -0.51496,-0.294263 -0.414519,-0.542124 -0.4866193,-1.094894 -0.016119,-0.123575 -0.054069,-0.243309 -0.081103,-0.364964 -0.027034,-0.33793 -0.05695,-0.675642 -0.081103,-1.01379 -0.021987,-0.307823 0,-0.623618 0,-0.932688 0,-0.540688 0,-1.081376 0,-1.622064 0,-0.189241 0,-0.378482 0,-0.567722 0,-0.0083 -0.020043,-0.263818 0,-0.283862 0.057349,-0.05735 0.1622065,0 0.2433097,0 0.4897196,0 1.215478,0.282791 1.5409612,0.608274 z"
       id="path30" />
    <path
       style="fill:#1a1a1a;stroke-width:0.264999;paint-order:markers stroke fill"
       d="m 16.869469,4.8256417 c -0.0142,0.3163477 -0.284566,0.358794 -0.486619,0.5271709 -0.191869,0.1598909 -0.369035,0.3969046 -0.608274,0.4866193 -0.252779,0.094792 -0.536191,0.1667163 -0.770481,0.2838614 -0.06558,0.032791 -0.102282,-0.012914 -0.243309,0.081103 -0.05458,0.036386 -0.08361,0.1456958 -0.121655,0.2027579 -0.02923,0.043841 -0.312813,0.2549105 -0.364965,0.2027582 -0.01756,-0.017558 0.192846,-0.3517485 0.202758,-0.3649644 0.0081,-0.010813 0.02974,0.00811 0.04055,0 0.04588,-0.034409 0.08494,-0.077599 0.121655,-0.1216549 0.0312,-0.037441 0.05931,-0.078063 0.0811,-0.1216549 0.006,-0.012092 -0.0096,-0.030994 0,-0.040552 0.0096,-0.00956 0.02846,0.00605 0.04055,0 0.03398,-0.016992 0.269404,-0.1883011 0.283861,-0.2027582 0.0096,-0.00956 -0.01159,-0.033597 0,-0.040551 0.149743,-0.089846 0.387387,-0.1095693 0.527171,-0.2027582 0.238249,-0.1588328 0.47939,-0.3207983 0.729929,-0.4460676 0.0342,-0.017097 0.04691,-0.064005 0.0811,-0.081103 0.07823,-0.039114 0.205633,-0.00143 0.283861,-0.040552 0.0705,-0.035249 0.132261,-0.086406 0.202758,-0.1216549 z"
       id="path32" />
    <path
       style="fill:#1a1a1a;stroke-width:0.264999;paint-order:markers stroke fill"
       d="M 17.761605,5.8394319 C 17.712985,5.4058401 17.488351,5.378392 17.193882,5.2311577 c -0.03244,-0.016222 -0.08921,0.016222 -0.121655,0 -0.0342,-0.017097 -0.04929,-0.059896 -0.0811,-0.081103 -0.05581,-0.037208 -0.453017,-0.089988 -0.527171,-0.040551 -0.13203,0.08802 -0.02354,0.075433 -0.162206,0.1216546 -0.121655,0.040552 0.0811,-0.081103 -0.121655,0 -0.04525,0.0181 -0.07806,0.059307 -0.121655,0.081103 -0.201187,0.1005938 -0.442553,0.1807247 -0.648826,0.2838614 -0.04985,0.024924 -0.112357,0.015626 -0.162206,0.040552 -0.150775,0.075387 -0.235121,0.1864783 -0.364965,0.2838611 -0.196689,0.1475169 -0.243309,0.090652 -0.243309,0.4055161 0,0.040552 -0.01814,0.085384 0,0.1216549 0.08943,0.1788673 0.491676,0.2672677 0.648826,0.324413 0.286613,0.1042228 0.780247,0.1845839 1.094893,0.1216549 0.01875,-0.00375 0.02345,-0.032003 0.04055,-0.040552 0.219738,-0.1098695 0.338311,-0.1827683 0.527171,-0.324413 0.04963,-0.037222 0.220118,-0.098464 0.243309,-0.1216549 0.03309,-0.03309 0.03175,-0.1022712 0.121655,-0.1622062 0.01125,-0.0075 0.02703,0 0.04055,0 0.02703,-0.013518 0.05973,-0.01918 0.0811,-0.040552 0.0096,-0.00956 -0.0096,-0.030993 0,-0.040552 0.0096,-0.00956 0.02846,0.00605 0.04055,0 0.142815,-0.071407 0.20304,-0.1897107 0.283862,-0.324413 z"
       id="path33" />
    <path
       style="fill:#f9f9f9;stroke-width:0.264999;paint-order:markers stroke fill"
       d="M 18.572637,6.2449482 C 18.478017,6.1503276 18.388789,6.0499876 18.288776,5.9610868 18.204813,5.8864531 18.051585,5.8830432 17.964363,5.8394319 17.793272,5.7538865 17.592988,5.7147311 17.39664,5.7988803 c -0.147441,0.063189 -0.142419,0.182971 -0.243309,0.2838614 -0.183425,0.1834245 -0.08326,-0.034079 -0.162207,0.2027581 -0.02549,0.076466 -0.124796,0.2370267 -0.0811,0.3244128 0.05129,0.1025884 0.162206,0.1622065 0.24331,0.2433097 0.08968,0.08968 0.171729,0.1732267 0.283861,0.2433095 0.106263,0.066414 0.616483,0.068913 0.729929,0.040552 0.07062,-0.017656 0.142191,-0.040725 0.202758,-0.081103 0.0016,-0.00108 0.06335,-0.103904 0.0811,-0.1216549 0.02137,-0.021373 0.06434,-0.015401 0.0811,-0.040551 0.0626,-0.093904 0.0811,-0.335479 0.0811,-0.4460679"
       id="path34" />
    <path
       style="fill:#2b1100;stroke-width:0.264999;paint-order:markers stroke fill"
       d="M 18.572637,6.4071545 C 18.404968,6.2368028 18.257187,6.244948 18.045466,6.244948 c -0.04055,0 -0.08791,-0.022495 -0.121655,0 -0.105344,0.070229 -0.178288,0.4950084 -0.121655,0.6082741 0.08273,0.1654585 0.341602,0.069644 0.446068,0 0.08033,0.00405 0.01918,-0.05973 0.04055,-0.081103 0.0096,-0.00956 0.02846,0.00605 0.04055,0 0.08607,-0.043037 0.211678,-0.3122443 0.24331,-0.3649646 z"
       id="path35" />
    <path
       style="fill:#1a1a1a;stroke-width:0.264999;paint-order:markers stroke fill"
       d="M 3.4468869,10.340661 C 3.476109,9.9413038 3.2363283,9.6517994 3.0413708,9.3268704 2.9274748,9.1370438 2.8135887,8.8713061 2.7169578,8.6780446 2.5122095,8.2685479 2.2402924,7.9224949 1.987029,7.5425995 1.8720086,7.3700693 1.7227267,7.156069 1.6220644,6.974877 1.6013051,6.937511 1.6071604,6.8874185 1.5815127,6.8532221 1.5633782,6.8290419 1.5197595,6.8358893 1.5004097,6.8126705 1.4259693,6.7233424 1.4079639,6.5655801 1.2976516,6.5288094 c -0.039991,-0.01333 -0.2140037,0 -0.2433097,0 -0.09462,0 -0.19288152,-0.025995 -0.28386132,0 -0.1742192,0.049777 -0.3261744,0.206281 -0.4055161,0.3649644 -0.1055727,0.2111454 -0.2416322,0.4165658 -0.2838613,0.6488257 -0.1199336,0.6596349 -0.1251618,1.3704811 0,2.0275807 0.011896,0.062452 0.1825393,0.5880558 0.2433097,0.6488258 0.00956,0.0096 0.027034,0 0.040552,0 0.013517,0.01352 0.028314,0.02587 0.040552,0.04055 0.055409,0.06649 0.1010047,0.141556 0.1622065,0.202758 0.07835,0.07835 0.56562672,0.0323 0.68937732,0.04055 0.035201,0.0024 1.0143094,0.15168 1.0543419,0.121655 0.030399,-0.0228 0.2083297,-0.246095 0.2838614,-0.283861 0.083236,-0.04162 0.7856016,0 0.8515837,0 z"
       id="path36" />
  </g>
</svg>
