<?xml version="1.0" encoding="UTF-8" standalone="no"?>
<!-- Created with Inkscape (http://www.inkscape.org/) -->

<svg
   width="20"
   height="20"
   viewBox="0 0 0.4 0.4"
   version="1.1"
   id="svg1"
   xml:space="preserve"
   inkscape:version="1.3.2 (091e20ef0f, 2023-11-25)"
   sodipodi:docname="Landon2.svg"
   xmlns:inkscape="http://www.inkscape.org/namespaces/inkscape"
   xmlns:sodipodi="http://sodipodi.sourceforge.net/DTD/sodipodi-0.dtd"
   xmlns="http://www.w3.org/2000/svg"
   xmlns:svg="http://www.w3.org/2000/svg"><sodipodi:namedview
     id="namedview1"
     pagecolor="#ffffff"
     bordercolor="#000000"
     borderopacity="0.25"
     inkscape:showpageshadow="2"
     inkscape:pageopacity="0.0"
     inkscape:pagecheckerboard="0"
     inkscape:deskcolor="#d1d1d1"
     inkscape:document-units="px"
     inkscape:zoom="52.196857"
     inkscape:cx="9.0331109"
     inkscape:cy="10.163447"
     inkscape:window-width="1789"
     inkscape:window-height="2054"
     inkscape:window-x="-12"
     inkscape:window-y="0"
     inkscape:window-maximized="0"
     inkscape:current-layer="layer1" /><defs
     id="defs1"><inkscape:path-effect
       effect="powerstroke"
       id="path-effect28"
       is_visible="true"
       lpeversion="1.3"
       scale_width="1"
       interpolator_type="CentripetalCatmullRom"
       interpolator_beta="0.75"
       start_linecap_type="round"
       end_linecap_type="round"
       offset_points="2268.3034,0.0057474725"
       linejoin_type="spiro"
       miter_limit="4"
       not_jump="true"
       sort_points="true"
       message="&lt;b&gt;Ctrl + click&lt;/b&gt; on existing node and move it" /><inkscape:path-effect
       effect="simplify"
       id="path-effect27"
       is_visible="true"
       lpeversion="1.3"
       threshold="0.012"
       steps="1"
       smooth_angles="0"
       helper_size="0"
       simplify_individual_paths="false"
       simplify_just_coalesce="false"
       step="1" /><inkscape:path-effect
       effect="powerstroke"
       id="path-effect26"
       is_visible="true"
       lpeversion="1.3"
       scale_width="1"
       interpolator_type="CentripetalCatmullRom"
       interpolator_beta="0.75"
       start_linecap_type="round"
       end_linecap_type="round"
       offset_points="397.76728,0.0057474725"
       linejoin_type="spiro"
       miter_limit="4"
       not_jump="true"
       sort_points="true"
       message="&lt;b&gt;Ctrl + click&lt;/b&gt; on existing node and move it" /><inkscape:path-effect
       effect="simplify"
       id="path-effect25"
       is_visible="true"
       lpeversion="1.3"
       threshold="0.012"
       steps="1"
       smooth_angles="0"
       helper_size="0"
       simplify_individual_paths="false"
       simplify_just_coalesce="false"
       step="1" /><inkscape:path-effect
       effect="powerstroke"
       id="path-effect24"
       is_visible="true"
       lpeversion="1.3"
       scale_width="1"
       interpolator_type="CentripetalCatmullRom"
       interpolator_beta="0.75"
       start_linecap_type="round"
       end_linecap_type="round"
       offset_points="175.22889,0.0057474725"
       linejoin_type="spiro"
       miter_limit="4"
       not_jump="true"
       sort_points="true"
       message="&lt;b&gt;Ctrl + click&lt;/b&gt; on existing node and move it" /><inkscape:path-effect
       effect="simplify"
       id="path-effect23"
       is_visible="true"
       lpeversion="1.3"
       threshold="0.012"
       steps="1"
       smooth_angles="0"
       helper_size="0"
       simplify_individual_paths="false"
       simplify_just_coalesce="false"
       step="1" /><inkscape:path-effect
       effect="powerstroke"
       id="path-effect22"
       is_visible="true"
       lpeversion="1.3"
       scale_width="1"
       interpolator_type="CentripetalCatmullRom"
       interpolator_beta="0.75"
       start_linecap_type="square"
       end_linecap_type="square"
       offset_points="166.08363,0.0057474725"
       linejoin_type="spiro"
       miter_limit="4"
       not_jump="true"
       sort_points="true"
       message="&lt;b&gt;Ctrl + click&lt;/b&gt; on existing node and move it" /><inkscape:path-effect
       effect="simplify"
       id="path-effect21"
       is_visible="true"
       lpeversion="1.3"
       threshold="0.012"
       steps="1"
       smooth_angles="0"
       helper_size="0"
       simplify_individual_paths="false"
       simplify_just_coalesce="false"
       step="1" /><inkscape:path-effect
       effect="powerstroke"
       id="path-effect20"
       is_visible="true"
       lpeversion="1.3"
       scale_width="1"
       interpolator_type="CentripetalCatmullRom"
       interpolator_beta="0.75"
       start_linecap_type="round"
       end_linecap_type="round"
       offset_points="313.38409,0.0057474725"
       linejoin_type="spiro"
       miter_limit="4"
       not_jump="true"
       sort_points="true"
       message="&lt;b&gt;Ctrl + click&lt;/b&gt; on existing node and move it" /><inkscape:path-effect
       effect="simplify"
       id="path-effect19"
       is_visible="true"
       lpeversion="1.3"
       threshold="0.012"
       steps="1"
       smooth_angles="0"
       helper_size="0"
       simplify_individual_paths="false"
       simplify_just_coalesce="false"
       step="1" /><inkscape:perspective
       sodipodi:type="inkscape:persp3d"
       inkscape:vp_x="0 : 0.2 : 1"
       inkscape:vp_y="0 : 1000 : 0"
       inkscape:vp_z="0.4 : 0.2 : 1"
       inkscape:persp3d-origin="0.2 : 0.13333333 : 1"
       id="perspective9" /></defs><g
     inkscape:label="Layer 1"
     inkscape:groupmode="layer"
     id="layer1"><circle
       id="path14"
       style="fill:#000000;stroke:#000000;stroke-width:0.02"
       cx="0.081230946"
       cy="0.096174374"
       r="2.5518779e-07" /><circle
       id="path17"
       style="fill:#000000;stroke:#000000;stroke-width:0.02"
       cx="0.30921403"
       cy="0.12721072"
       r="2.5518779e-07" /><path
       style="fill:#000000;fill-opacity:0.609375;stroke:none"
       d="m 3.889123,3.4868 c 0.1523827,-0.00879 0.3080539,0.015174 0.4597978,0 0.0262,-0.00262 0.050464,-0.016251 0.076633,-0.019158 0.118922,-0.013213 0.2471963,0.019778 0.3640066,-0.019158 0.084743,-0.028248 0.1780299,-0.027043 0.2682154,-0.038317 0.026127,-0.00327 0.050411,-0.016774 0.076633,-0.019158 0.1055523,-0.0096 0.2193459,0 0.3256901,0 0.236285,0 0.47257,0 0.708855,0 0.6130637,0 1.2261274,0 1.8391912,0 0.5492029,0 1.0984058,0 1.6476087,0 0.2235129,0 0.4470252,0 0.6705382,0 0.09579,0 0.192028,-0.00923 0.287374,0 0.854716,0.082714 -0.299474,0.043358 0.670538,0.095791 0.114782,0.0062 0.22993,-0.00267 0.344849,0 0.32977,0.00767 0.609697,0.029423 0.938753,0.038316 0.08299,0.00224 0.166325,-0.00689 0.249058,0 0.154843,0.012904 0.305117,0.061902 0.459797,0.076633 0.13692,0.01304 0.283506,0 0.421482,0 0.293759,0 0.587519,0 0.881279,0 0.0169,0 0.222029,-0.020192 0.229899,0.019158 0.005,0.025048 -0.0028,0.051245 0,0.076633 0.01433,0.1289677 0.0623,0.2541972 0.07663,0.3831648 0.02258,0.2032521 0,0.429595 0,0.632222 0,0.3256901 0,0.6513802 0,0.9770703 0,0.1460422 0.02342,0.4533565 0,0.5939055 -0.0023,0.014085 -0.01739,0.024147 -0.01916,0.038316 -0.01561,0.1248682 0.02068,0.259083 0,0.3831648 -0.0043,0.025972 -0.01543,0.050567 -0.01916,0.076633 -0.0088,0.061288 -0.0023,0.2159221 -0.05748,0.2490571 -0.0954,0.057242 -0.198374,0.057475 -0.306531,0.057475 -0.581134,0 -1.162267,0 -1.7434,0 -0.563023,0 -1.123087,0.019158 -1.685926,0.019158 -0.268215,0 -0.53643,0 -0.804646,0 -0.0894,0 -0.179219,0.00854 -0.2682151,0 C 9.2717215,7.0395743 8.5615174,6.9727303 7.854879,6.8778087 7.4621939,6.7753691 7.429184,6.751318 7.0502329,6.7053845 6.9612513,6.6945989 6.8706827,6.6993619 6.7820175,6.6862263 6.6977364,6.6737402 6.6172547,6.6411478 6.5329604,6.6287516 6.3996793,6.6091514 6.2645279,6.6053118 6.1306373,6.5904351 5.9565882,6.5710963 5.7899176,6.5403167 5.6133648,6.5329604 c -0.2267545,-0.00945 -0.4644808,0.02413 -0.6896967,0 C 4.838952,6.5238836 4.7584851,6.4904632 4.6746109,6.4754856 4.4967981,6.4437333 4.3171117,6.4235329 4.1381802,6.3988527 3.9246917,6.369406 3.7863953,6.3750701 3.6209077,6.264745 3.5143383,6.1936987 3.5360435,6.0483256 3.5251164,5.9390549 3.5193623,5.8815134 3.5085841,5.8243995 3.5059582,5.7666307 3.4989617,5.6127073 3.4841038,5.386048 3.5251164,5.2301999 3.5441391,5.1579139 3.580271,5.0910541 3.6017494,5.0194593 3.6655743,4.8067097 3.6925007,4.5806287 3.7550153,4.3680791 c 0.013723,-0.046659 0.042095,-0.087969 0.057475,-0.1341077 0.00404,-0.012117 -0.00277,-0.025848 0,-0.038316 0.031429,-0.1414324 0.069348,-0.3111195 0.1341077,-0.4406396 0.013987,-0.027975 0.06584,-0.1257421 0.038316,-0.1532659 -0.00452,-0.00452 -0.014643,0.00452 -0.019158,0 C 3.965756,3.5825912 3.889123,3.4868 3.889123,3.4868 Z"
       id="path20" /><path
       style="fill:#000000;fill-opacity:0.609375;stroke:none"
       d="m 9.5599625,3.9465978 c 1.1746885,-0.00918 2.3395025,-0.037475 3.5059585,0.1532659 0.498366,0.081494 0.986649,0.2170073 1.475184,0.3448483 0.195368,0.051124 0.388013,0.1146917 0.574748,0.1915825 0.0334,0.013755 0.06429,0.042683 0.07663,0.076633 0.04496,0.1236364 -0.05433,0.2679745 -0.153266,0.3256901 -0.05144,0.030007 -0.876662,0.4272315 -1.130337,0.4597978 -2.169459,0.2785117 -1.854265,0.2490572 -3.352692,0.2490572 -0.312918,0 -0.6273145,0.030384 -0.9387537,0 C 9.4634425,5.7324486 8.0601309,5.4903573 7.6058219,5.4217824 7.4656161,5.4006192 7.3257907,5.3741762 7.1843406,5.3643076 6.8070578,5.3379856 6.4463428,5.3929514 6.0731626,5.3068329 5.9885269,5.2873016 5.9075212,5.2544174 5.8241054,5.2301999 5.7095344,5.1969374 5.587759,5.1840096 5.4792571,5.1344087 5.2958955,5.0505863 5.0328485,4.9024433 5.000301,4.6746109 4.9124315,4.0595243 6.7054794,3.8000567 7.0885494,3.7741736 c 0.2484905,-0.01679 0.4982525,-0.0083 0.7471714,0 1.4017907,0.046726 1.8620283,0.1672227 3.5634332,0.5172725 0.477888,0.098322 0.942139,0.2550218 1.41771,0.3640066 0.138211,0.031673 0.280717,0.040413 0.421481,0.057475 0.227312,0.027553 0.159894,-0.031689 0.229899,0.038317 0.04759,0.047594 0.10025,0.07077 0.153266,0.1149494 0.01277,0.012772 0.02554,0.025544 0.03832,0.038316 0,0.00639 -0.0045,0.014643 0,0.019158 0.0091,0.0091 0.06254,-0.00705 0.03832,-0.019158 -0.103518,-0.051759 -0.32473,0.077811 -0.383165,0.095791 C 13.020994,5.0907601 12.585943,5.1882682 12.28044,5.2302 11.742853,5.303987 10.784721,5.293832 10.287983,5.211042 10.012823,5.1651829 9.741982,5.0855986 9.4833296,4.9811428 9.4036647,4.9489705 9.3495405,4.8722913 9.2917471,4.8087186 9.2771877,4.7927032 9.313127,4.495522 9.3300636,4.444712 9.3401606,4.41442 9.3630086,4.38852 9.3875386,4.368079 9.4712806,4.298294 9.7544285,4.288563 9.7898616,4.2531295 c 0,-0.057475 -0.2298989,-0.3065318 -0.2298991,-0.3065317 z"
       id="path22" /><path
       style="fill:#000000;fill-opacity:0.609375;stroke:none"
       d="m 4.5405032,5.9390549 c 0.1136667,-0.025217 0.3348359,-0.039676 0.4406396,0 0.097825,0.036684 0.1874629,0.081646 0.2873736,0.1149494 0.2113199,0.07044 0.6075547,0.2590337 0.7280132,0.4597978 0.1110939,0.1851566 0.1149494,0.3819588 0.1149494,0.5939055 0,0.044703 0.010842,0.09074 0,0.1341077 -0.014717,0.058867 -0.051935,0.1038699 -0.076633,0.1532659 -0.011495,0.02299 -0.04598,0.034485 -0.057475,0.057475 -0.00517,0.010338 -0.026991,0.084465 -0.038316,0.095791 -0.00452,0.00452 -0.014643,-0.00452 -0.019158,0 -0.011326,0.011326 -0.092261,0.1078893 -0.095791,0.1149494 -0.00286,0.00571 0.00452,0.014643 0,0.019158 -0.013547,0.013547 -0.0393,-0.00606 -0.057475,0 -0.066868,0.022289 -0.1260209,0.069567 -0.1915824,0.095791 -0.019158,0.00639 -0.038316,0.012772 -0.057475,0.019158 -0.012772,0 -0.0262,-0.00404 -0.038317,0 -0.00857,0.00286 -0.01059,0.016302 -0.019158,0.019158 -0.012117,0.00404 -0.025926,-0.0031 -0.038316,0 -0.027707,0.00693 -0.049539,0.029285 -0.076633,0.038317 -0.066312,0.022104 -0.125385,0.027284 -0.1915824,0.038316 -0.045859,0.00764 -0.088249,0.030673 -0.1341077,0.038316 -0.077484,0.012914 -0.1728205,-0.00693 -0.2490572,0 -0.089776,0.00816 -0.3548614,0.047751 -0.4406395,0.019158 -0.00857,-0.00286 -0.01108,-0.015119 -0.019158,-0.019158 C 4.2193932,7.8859064 4.1212391,7.8300738 4.0232307,7.7974043 3.9303912,7.7664578 3.8371937,7.7281652 3.7741736,7.6441384 c -0.050205,-0.06694 0.0035,-0.00865 -0.019158,-0.076633 -0.014836,-0.044509 -0.063202,-0.1254172 -0.076633,-0.1724242 -0.00526,-0.018421 0.00315,-0.038577 0,-0.057475 -0.00881,-0.052859 -0.037534,-0.084255 -0.057475,-0.1341077 -0.016562,-0.041406 0,-0.3679813 0,-0.4023231 0,-0.1287685 0.07412,-0.1758784 0.1532659,-0.2682153 0.014985,-0.017482 0.022035,-0.041193 0.038317,-0.057475 0.075408,-0.075408 0.038915,-7.975e-4 0.095791,-0.076633 0.048664,-0.064885 0.030099,-0.030099 0.076633,-0.076633 0.052683,-0.052683 0.057517,-0.089419 0.1341077,-0.1149494 0.022269,-0.00742 0.056345,-0.00901 0.076633,-0.019158 0.020594,-0.010297 0.036096,-0.029765 0.057475,-0.038317 0.011859,-0.00474 0.026893,0.00571 0.038316,0 0.00571,-0.00286 -0.00571,-0.016302 0,-0.019158 0.011424,-0.00571 0.025792,0.0025 0.038316,0 0.2107406,-0.095791 0.2107406,-0.1915824 0.210741,-0.1915818 z"
       id="path26" /><path
       style="fill:#000000;fill-opacity:0.609375;stroke:none"
       d="m 4.7512439,6.4371692 v 0.057475"
       id="path28" /><path
       style="fill:#000000;fill-opacity:0.609375;stroke:#000000;stroke-width:0.0268383"
       id="path29"
       d="m 0.01581219,0.03578942 c 0.008105,3.9115e-4 0.01621405,0.0014 0.02423765,0.0026258 0.0049815,7.6098e-4 0.0099215,0.0018063 0.0149086,0.0025269 0.0082878,0.0011974 0.01671762,0.001448 0.02490982,0.0032255 0.0092984,0.0020177 0.0182733,0.0054189 0.02740989,0.0081284 0.0167954,0.0050249 0.0268152,0.0069933 0.0420076,0.01497973 0.008888,0.0046723 0.010907,0.0071607 0.0173964,0.01324672 0,0 6.1484e-4,-0.01987761 6.1484e-4,-0.01987761 v 0 c -0.002052,4.3728e-4 -0.004068,0.0011314 -0.006155,0.0013119 -0.003893,3.3667e-4 -0.007829,6.2802e-4 -0.011717,2.3375e-4 C 0.13353979,0.06057902 0.1230155,0.05645169 0.10729293,0.0517465 0.06857511,0.04026492 0.09101354,0.04847154 0.05520524,0.03186873 0.05031587,0.02960124 0.04529127,0.02765906 0.04043038,0.02532568 0.03437985,0.02242131 0.02699673,0.01839417 0.02128154,0.01445213 0.01971968,0.0133745 0.01830684,0.01207704 0.01681949,0.01088962 Z" /><path
       style="fill:#000000;fill-opacity:0.609375;stroke:#000000;stroke-width:0.0268383"
       id="path30"
       d="m 0.22194713,0.08614421 c 0.001273,-6.4089e-4 0.003437,-0.0017668 0.004665,-0.0021934 9.3069e-4,-3.2374e-4 0.00191,-4.665e-4 0.00286,-7.1989e-4 0.002733,-7.2875e-4 0.004296,-0.0012927 0.007116,-0.0018071 0.001168,-2.1356e-4 0.002354,-3.0948e-4 0.003532,-4.6422e-4 0.005227,-0.0013262 0.010581,-0.0019605 0.0158536,-0.0030364 0.007942,-0.0016226 5.8827e-4,-3.6792e-4 0.00864,-0.0016387 0.008207,-0.0013332 0.0165261,-0.0017195 0.0248142,-0.0021057 0.002074,-4.246e-4 0.004224,-2.0836e-4 0.006304,-5.8066e-4 0.001102,-1.9737e-4 0.002159,-6.1379e-4 0.003254,-8.5419e-4 9.6087e-4,-2.1109e-4 0.001959,-2.3141e-4 0.002906,-4.989e-4 0.001187,-3.3476e-4 0.002299,-9.1062e-4 0.003469,-0.0013008 0.001138,-3.7947e-4 0.002301,-6.7111e-4 0.003452,-0.0010067 0.001115,-2.9229e-4 0.002232,-5.8004e-4 0.003345,-8.769e-4 0.003158,-8.4175e-4 0.003979,-0.0011804 0.007209,-0.0016773 0.003192,-4.9119e-4 0.006457,-6.6112e-4 0.009669,-9.2853e-4 0.001258,-2.9764e-4 0.007405,-0.0017638 0.008391,-0.0019449 0.001422,-2.6134e-4 0.002882,-2.7424e-4 0.004295,-5.8974e-4 0.001865,-4.1688e-4 0.003654,-0.0011547 0.005513,-0.0016017 0.004751,-0.0011448 0.007439,-0.0013808 0.0122515,-0.0020288 0.007899,-9.7399e-4 0.003946,-5.1278e-4 0.0118616,-0.0013835 0,0 -1.9941e-4,-0.02032223 -1.9941e-4,-0.02032223 v 0 c -0.007983,8.4115e-4 -0.004008,3.2304e-4 -0.0119258,0.0015525 -0.005969,9.122e-4 -0.006215,0.0011103 -0.0122745,0.001389 -0.001856,8.51e-5 -0.003723,-9.993e-5 -0.005574,8.043e-5 -0.001431,1.3945e-4 -0.002804,6.9284e-4 -0.00423,8.7531e-4 -0.002963,3.79e-4 -0.005445,2.1605e-4 -0.008391,1.433e-4 -0.004497,7.9977e-4 -0.008992,0.0016032 -0.0134813,0.0024459 -0.00123,2.3087e-4 -0.002475,3.8776e-4 -0.003693,6.7525e-4 -0.001137,2.6819e-4 -0.002245,6.597e-4 -0.003368,9.8958e-4 -0.00919,0.0026573 0.002274,-5.2217e-4 -0.006826,0.0015798 -9.6926e-4,2.2372e-4 -0.001893,6.3226e-4 -0.002863,8.5728e-4 -0.001031,2.3938e-4 -0.002088,3.304e-4 -0.003128,5.3367e-4 -0.006878,0.0013465 0.001236,-7.37e-6 -0.0062,0.0011702 -0.003781,6.5384e-4 -0.00757,0.0011137 -0.0113724,0.0016252 -3.9045e-4,5.27e-5 -0.00852,0.0011816 -0.008801,0.0012127 -0.001563,1.7211e-4 -0.003134,2.6354e-4 -0.004699,3.955e-4 -0.002905,3.7846e-4 -0.005816,6.9955e-4 -0.008716,0.0011333 -0.005287,7.9154e-4 -0.010472,0.0023045 -0.0158332,0.0025407 -0.003484,6.8507e-4 -0.003737,8.0803e-4 -0.007304,0.0012088 -0.001164,1.3065e-4 -0.00234,1.3807e-4 -0.003499,3.0568e-4 -9.787e-4,1.4139e-4 -0.001924,4.8457e-4 -0.002905,6.1997e-4 -0.001136,1.5703e-4 -0.003452,1.8448e-4 -0.004731,2.1303e-4 z" /><path
       style="fill:#000000;fill-opacity:0.609375;stroke:#000000;stroke-width:0.0268383"
       id="path31"
       d="m -0.0405423,0.32073937 c 5.0262e-4,2.3332e-4 0.001028,4.1807e-4 0.0015078,6.9864e-4 0.001227,7.1785e-4 0.0023416,0.001629 0.0035281,0.002417 0.0019475,0.001295 0.0039738,0.002419 0.0059654,0.003636 0.0020706,8.5294e-4 0.0038057,0.00234 0.0057645,0.003406 6.3086e-4,3.4313e-4 0.0013114,5.8004e-4 0.0019414,9.251e-4 4.9508e-4,2.7177e-4 0.0027357,0.001741 0.003258,0.002081 0.0032419,0.001976 0.0068265,0.003226 0.01029434,0.004692 7.3075e-4,2.2784e-4 0.00147091,4.2248e-4 0.00219217,6.7997e-4 8.0727e-4,2.8825e-4 0.00158732,6.5471e-4 0.00239043,9.5559e-4 0.003175469,0.00119 0.0018918,6.2179e-4 0.00521042,0.001702 0.00552134,0.001797 -1.9128e-4,9.883e-5 0.00513761,0.001638 0.00278741,8.488e-4 0.00548746,0.001991 0.00825352,0.002904 9.179e-4,3.0279e-4 0.0034601,9.7508e-4 0.0043268,0.00121 0.0029355,5.3916e-4 0.0058096,0.001385 0.0087296,0.001998 0.0011669,2.4433e-4 0.0023508,3.9832e-4 0.0035147,6.5829e-4 0.0025182,5.6247e-4 0.0050057,0.001267 0.0075156,0.001869 0.0063323,0.001122 0.01267348,0.002203 0.01904692,0.003042 0.001924,2.5256e-4 0.0038654,3.5027e-4 0.00578,6.5937e-4 0.0018266,2.9512e-4 0.0036227,7.6755e-4 0.0054365,0.001151 0.0057588,0.001365 0.01153768,0.002829 0.01746092,0.003138 0.0019204,9.883e-5 0.0038443,6.314e-5 0.0057683,9.332e-5 0.0022393,1.4001e-4 0.0044809,2.822e-4 0.0067191,4.233e-4 0.0072126,4.0958e-4 0.01439448,0.001173 0.02156377,0.002078 0.001985,2.498e-4 0.003957,6.7805e-4 0.005954,7.6286e-4 0.002176,9.334e-5 0.004351,-2.3334e-4 0.006529,-2.3334e-4 0.002044,5.8e-7 0.004085,1.5648e-4 0.006128,2.3609e-4 0.006723,-8.4084e-4 0.009062,-0.001317 0.0159586,-0.001405 0.002906,-3.844e-5 0.0118309,4.277e-4 0.0149101,6.0584e-4 0.002122,1.2354e-4 0.004237,4.1068e-4 0.006363,4.1452e-4 0.002069,3.77e-6 0.004129,-2.6079e-4 0.006195,-3.9172e-4 0.001238,-7.137e-5 0.00831,-4.3126e-4 0.009866,-6.6076e-4 0.006901,-0.001017 0.002951,-0.001229 0.009831,-0.001482 0.001389,-5.216e-5 0.00278,1.0707e-4 0.00417,1.0981e-4 0.001299,4.55e-6 0.002598,-5.49e-5 0.003896,-8.236e-5 0.004775,3.9558e-4 0.009495,-5.1307e-4 0.0142261,-9.9978e-4 0.006786,-6.9781e-4 4.2325e-4,1.0432e-4 0.007168,-8.0241e-4 0.002489,-8.002e-4 0.005121,-9.0094e-4 0.007633,-0.001569 0.001453,-3.8624e-4 0.002842,-9.9346e-4 0.004285,-0.001417 0.001348,-3.9723e-4 0.002729,-6.6543e-4 0.004083,-0.001046 0.007237,-0.002035 0.001403,-7.3653e-4 0.008274,-0.002107 0.001304,-2.8742e-4 0.002602,-6.0997e-4 0.003912,-8.6226e-4 0.002485,-4.7876e-4 0.004993,-8.3726e-4 0.007482,-0.001309 0.001202,-2.2784e-4 0.002401,-4.6229e-4 0.003601,-6.9314e-4 0.001252,-2.9126e-4 0.002495,-6.3084e-4 0.003756,-8.7379e-4 0.001223,-2.3607e-4 0.00246,-3.7307e-4 0.003691,-5.5973e-4 0.0024,-7.0249e-4 0.004947,-3.7526e-4 0.007364,-9.092e-4 0.00173,-3.8157e-4 0.00337,-0.001128 0.005093,-0.001537 0.004993,-0.001186 0.0100937,-0.001459 0.0151846,-0.001769 0.006564,-3.5221e-4 0.0125681,-0.003055 0.0185182,-0.005723 0.0025,-0.001317 0.005136,-0.002317 0.007746,-0.003368 9.9657e-4,-4.0134e-4 0.001975,-8.5676e-4 0.002988,-0.001206 9.9105e-4,-3.4121e-4 0.002053,-4.5186e-4 0.00302,-8.6308e-4 0.001466,-6.2369e-4 0.002832,-0.001485 0.004246,-0.002226 0.001534,-5.861e-4 0.006849,-0.002585 0.008391,-0.003288 0.007092,-0.00324 0.001711,-0.001362 0.00884,-0.00405 0.002147,-8.1036e-4 0.005962,-0.002018 0.008183,-0.002738 0.004365,-9.6684e-4 0.008572,-0.002537 0.0128571,-0.0038 0.002212,-6.517e-4 0.004452,-0.001193 0.006674,-0.001804 0.004619,-0.001434 0.009329,-0.002728 0.0137802,-0.00469 0.001169,-5.1498e-4 0.002293,-0.001139 0.003452,-0.001681 0.00111,-5.1802e-4 0.002237,-9.9786e-4 0.003355,-0.001497 0.004801,-0.001973 0.009654,-0.0043 0.0148472,-0.00482 0,0 -6.8457e-4,-0.0255771 -6.8457e-4,-0.0255771 v 0 c -0.001182,5.7812e-4 -0.002377,0.001125 -0.00356,0.001707 -0.00383,0.001887 -0.007543,0.004048 -0.0115189,0.005599 -0.005403,0.002571 -0.001225,6.5965e-4 -0.006725,0.002971 -0.004396,0.001849 -0.008786,0.003781 -0.0134595,0.004745 -0.006758,0.001488 -0.0135304,0.003162 -0.0197584,0.006382 -0.004212,0.001809 -0.008443,0.003578 -0.0126899,0.005293 -0.001466,5.9268e-4 -0.00296,0.001114 -0.004418,0.00173 -0.001348,5.6907e-4 -0.002644,0.001272 -0.003999,0.001823 -0.001396,5.6742e-4 -0.002833,0.00102 -0.004247,0.001529 -0.001391,2.3883e-4 -0.002795,4.0738e-4 -0.004173,7.1456e-4 -0.001045,2.3335e-4 -0.002053,6.2315e-4 -0.003088,9.0261e-4 -0.001036,2.7973e-4 -0.002097,4.6145e-4 -0.003124,7.7496e-4 -0.002745,8.3837e-4 -0.005331,0.002179 -0.007927,0.003405 -8.4751e-4,4.4116e-4 -0.001683,9.1249e-4 -0.002542,0.001324 -0.001817,8.6747e-4 -0.003677,0.00163 -0.005502,0.002477 -0.001573,7.2993e-4 -0.004429,0.002098 -0.006016,0.002681 -0.001238,4.5377e-4 -0.002512,7.9224e-4 -0.003768,0.001187 -0.005002,0.001233 -0.00996,0.002389 -0.0151277,0.002513 -0.001703,4.117e-5 -0.003408,-2.8247e-4 -0.005111,-2.1961e-4 -0.002497,9.334e-5 -0.00492,0.00105 -0.007432,0.001043 -0.002522,4.3181e-4 -0.005058,7.7493e-4 -0.007563,0.001291 -0.001191,2.4432e-4 -0.00236,6.0202e-4 -0.003548,8.6473e-4 -0.003837,8.4851e-4 -0.007707,0.001538 -0.0115248,0.002494 -0.008786,0.002864 0.001112,-2.2784e-4 -0.008306,0.002269 -0.001357,3.5988e-4 -0.002667,9.0865e-4 -0.004032,0.001241 -0.001384,3.3684e-4 -0.002801,4.8646e-4 -0.004196,7.6344e-4 -0.006049,0.001201 -0.001347,5.3916e-4 -0.007531,0.001238 -0.001146,1.9766e-4 -0.002286,4.3923e-4 -0.003438,5.8911e-4 -0.001209,1.5648e-4 -0.002427,2.1413e-4 -0.00364,3.3217e-4 -0.002992,2.91e-4 -0.004168,4.653e-4 -0.007152,6.8819e-4 -0.001157,8.512e-5 -0.002319,1.0433e-4 -0.003476,2.0864e-4 -0.001172,1.0707e-4 -0.002339,2.8413e-4 -0.003506,4.2634e-4 -0.001305,1.4548e-4 -0.002614,2.4432e-4 -0.003916,4.3289e-4 -0.007544,0.001095 -8.4856e-4,5.1114e-4 -0.009165,0.001346 -0.001685,1.702e-4 -0.003395,9.882e-5 -0.005062,4.0628e-4 -0.003268,6.0284e-4 -0.006258,0.002463 -0.009644,0.002578 -0.006499,7.0523e-4 -0.0129948,0.001228 -0.0195234,0.001583 -0.002599,1.4e-4 -0.005196,3.5028e-4 -0.0078,3.5495e-4 -0.007001,1.274e-5 -0.009124,-4.1919e-4 -0.0159453,-0.001195 -0.0162477,6.0229e-4 0.004418,4.942e-5 -0.0125771,-2.1137e-4 -0.001972,-3.019e-5 -0.003942,2.2236e-4 -0.005913,2.4706e-4 -0.007202,9.06e-5 -0.0143726,-5.3998e-4 -0.02142906,-0.002107 -0.0022264,-5.1005e-4 -0.0044681,-9.4652e-4 -0.006678,-0.001531 -0.0057412,-0.001516 -0.0048889,-0.001864 -0.01017182,-0.002655 -0.0020798,-3.1157e-4 -0.0061798,-4.7189e-4 -0.0082338,-6.0669e-4 -0.001598,-1.0431e-4 -0.0031948,-2.3058e-4 -0.0047916,-3.4724e-4 -0.0081588,-0.001131 -0.002829,-2.1413e-4 -0.01119299,-0.002127 -0.0062923,-0.00144 -0.01267245,-0.002515 -0.01883927,-0.004506 -0.0025051,-7.8757e-4 -0.0050266,-0.001518 -0.0075244,-0.00233 -0.0011766,-3.8267e-4 -0.0023307,-8.3809e-4 -0.0035088,-0.001217 -0.0028592,-9.1771e-4 -0.0057821,-0.001643 -0.0085463,-0.002868 -0.00111,-4.5844e-4 -0.0031673,-0.001335 -0.0043488,-0.001723 -6.2686e-4,-2.0589e-4 -0.0012721,-3.448e-4 -0.0019064,-5.2433e-4 -0.0021714,-6.1491e-4 -0.0043297,-0.001286 -0.00653056,-0.001782 C 0.00521369,0.31870157 0.00421398,0.31857803 0.00227774,0.31788409 0.0013646,0.31755686 4.92515e-4,0.31711516 -4.07075e-4,0.31674909 -0.00280735,0.31577183 -0.0052721,0.31494309 -0.00739346,0.31335209 c -0.00341183,-0.001314 -0.00677958,-0.00283 -0.00994567,-0.004701 -0.0011133,-5.9049e-4 -0.0022645,-0.0011 -0.0033745,-0.001698 -6.4533e-4,-3.4699e-4 -0.0012499,-7.7277e-4 -0.0018935,-0.001124 -0.0018911,-0.001027 -0.0039039,-0.001824 -0.0057014,-0.003044 -0.0037933,-0.002247 -0.007658,-0.00461 -0.01043456,-0.008207 z" /><path
       sodipodi:type="spiral"
       style="fill:none;fill-rule:evenodd;stroke:#000000;stroke-width:0.02"
       id="path34"
       sodipodi:cx="0.10422084"
       sodipodi:cy="0.23143156"
       sodipodi:expansion="1"
       sodipodi:revolution="3"
       sodipodi:radius="0.085449189"
       sodipodi:argument="-19.061901"
       sodipodi:t0="0"
       d="m 0.10422084,0.23143156 c 0.004188,-9.0293e-4 0.003283,0.0052 0.001501,0.006961 -0.004831,0.004772 -0.01254298,0.001064 -0.01542238,-0.003959 -0.0051506,-0.008985 6.4156e-4,-0.0199487 0.0094195,-0.0238839 0.01288196,-0.005775 0.02747734,0.002335 0.03234548,0.0148796 0.006488,0.01672 -0.00402,0.0350526 -0.0203397,0.040807 -0.02053714,0.007241 -0.0426508,-0.005699 -0.04926859,-0.0257998 -0.008015,-0.0243447 0.0073752,-0.0502621 0.03125992,-0.0577301 0.0281473,-0.008801 0.05788149,0.009049 0.06619169,0.03672 0.009594,0.0319469 -0.0107222,0.0655064 -0.0421801,0.0746532 -0.03574453,0.0103933 -0.07313505,-0.012394 -0.08311479,-0.0476402 -0.01119576,-0.0395409 0.01406521,-0.0807665 0.05310034,-0.0915763 0.04333639,-0.0120009 0.08840009,0.0157359 0.10003789,0.0585605"
       transform="matrix(1.3119434,0,0,1.3725746,-0.07560681,-0.12483248)" /><path
       sodipodi:type="spiral"
       style="fill:none;fill-rule:evenodd;stroke:#000000;stroke-width:0.02"
       id="path35"
       sodipodi:cx="0.31304568"
       sodipodi:cy="0.21035749"
       sodipodi:expansion="1"
       sodipodi:revolution="3"
       sodipodi:radius="0.092375308"
       sodipodi:argument="-21.700884"
       sodipodi:t0="0"
       d="m 0.31304568,0.21035749 c -0.004438,-0.001326 -4.026e-4,-0.006636 0.002203,-0.007376 0.007062,-0.002005 0.0124366,0.005524 0.0125486,0.0117823 2.0044e-4,0.0111942 -0.0109963,0.0185645 -0.0213614,0.0177214 -0.0152113,-0.001237 -0.024815,-0.0165212 -0.0228941,-0.0309406 0.00256,-0.0192188 0.022062,-0.0311142 0.0405197,-0.0280668 0.0232271,0.003835 0.0374378,0.0276098 0.0332396,0.0500988 -0.005085,0.0272371 -0.0331614,0.0437755 -0.0596779,0.0384123 -0.0312487,-0.00632 -0.050122,-0.0387154 -0.043585,-0.069257 0.007547,-0.0352616 0.0442708,-0.0564744 0.0788362,-0.0487577 0.0392753,0.008768 0.0628309,0.0498274 0.0539305,0.0884153 -0.009985,0.0432898 -0.0553848,0.0691903 -0.0979944,0.0591032 C 0.24150577,0.280294 0.21325847,0.23054987 0.2245346,0.18391913"
       transform="matrix(1.3119434,0,0,1.3725746,-0.07560681,-0.12483248)" /></g></svg>
